# xmcd
#
# Track frame offsets:
#	150
#	18280
#	49877
#	62897
#	81622
#	108895
#	122820
#	137785
#	162702
#	180567
#	205422
#
# Disc length: 2987 seconds
#
# Revision: 0
# Processed by: cddbd v1.5.2PL0 Copyright (c) Steve Scherf et al.
# Submitted via: dBpowerAMP V4.0
#
DISCID=a20ba90b
DTITLE=Mick Pini Band - Blues Gonna Be My Way
DYEAR=1999
DGENRE=Blues
TTITLE0=Avenue 54
TTITLE1=I Feel So Bad
TTITLE2=Watch Out
TTITLE3=Woke Up This Morning
TTITLE4=Third Degree
TTITLE5=Driving Wheel
TTITLE6=Looking For Somebody
TTITLE7=Last Night
TTITLE8=Hard Times
TTITLE9=Like A Road
TTITLE10=Wash Out
EXTD=
EXTT0=
EXTT1=
EXTT2=
EXTT3=
EXTT4=
EXTT5=
EXTT6=
EXTT7=
EXTT8=
EXTT9=
EXTT10=
PLAYORDER=
